# xmcd CD database file
# Copyright (C) 1993-1996 Ti Kan
#
# Track frame offsets:
# 150
# 13315
# 25692
# 39387
# 53440
# 67262
# 80845
# 93845
# 106727
# 120420
# 137197
# 155355
# 171885
# 187410
# 208072
#
# Disc length: 2989 seconds
# Revision: 0
# Processed by: cddbd v1.4b41PL1 Copyright (c) Steve Scherf et al.
# Submitted via: CDSpectrumPro v3.2.327
#
DISCID=cc0bab0f
DTITLE=Joe Dolan - The Collection
DYEAR=1900
DGENRE=
TTITLE0=Make Me an Island
TTITLE1=Teresa
TTITLE2=I Need You
TTITLE3=Sister Mary
TTITLE4=Sweet Little Rock 'N Roller
TTITLE5=Lady In Blue
TTITLE6=Crazy Woman
TTITLE7=You're Such a Good Looking Woman
TTITLE8=Hush Hush Maria
TTITLE9=It's You It's You It's You
TTITLE10=Queen Of The Broken Hearts
TTITLE11=More And More And More
TTITLE12=Let Me In
TTITLE13=Ave Maria
TTITLE14=Come Back Home
EXTD=Fantastic !!
EXTT0=
EXTT1=
EXTT2=
EXTT3=
EXTT4=
EXTT5=
EXTT6=
EXTT7=
EXTT8=
EXTT9=
EXTT10=
EXTT11=
EXTT12=
EXTT13=
EXTT14=
PLAYORDER=
